<svg width="64" height="64" viewBox="0 0 64 64" fill="none" xmlns="http://www.w3.org/2000/svg">
  <!-- 外圈 C 形 -->
  <path d="M32 8C18.745 8 8 18.745 8 32C8 45.255 18.745 56 32 56C45.255 56 56 45.255 56 32C56 18.745 45.255 8 32 8ZM32 52C21.019 52 12 42.981 12 32C12 21.019 21.019 12 32 12C42.981 12 52 21.019 52 32C52 42.981 42.981 52 32 52Z" fill="#E60012"/>
  
  <!-- 內部的 H 形設計 -->
  <path d="M24 20H28V28H36V20H40V44H36V32H28V44H24V20Z" fill="#E60012"/>
  
  <!-- 右側的增長線條 -->
  <rect x="44" y="24" width="2" height="16" fill="#E60012"/>
  <rect x="47" y="28" width="2" height="12" fill="#E60012"/>
  <rect x="50" y="32" width="2" height="8" fill="#E60012"/>
  <rect x="53" y="36" width="2" height="4" fill="#E60012"/>
</svg>

